# xmcd
# 
# Track frame offsets:
#     150
#     16955
#     39564
#     56369
# 
# Disc length: 1051
# 
# Revision: 2
# Processed by: cddbd v1.5.2PL0 Copyright (c) Steve Scherf et al.
# Submitted via: fre:ac v1.0.17
# 
DISCID=27041904
DTITLE=緒方恵美 - Innocent Prisoner
DYEAR=2013
DGENRE=Anime
TTITLE0=Innocent Prisoner
TTITLE1=再生 -rebuild- (re:build ver.)
TTITLE2=Innocent Prisoner (instrumental)
TTITLE3=再生 -rebuild- (re:build ver.) (instrumental)
EXTD=ダンカンロンパ 主題歌
EXTT0=
EXTT1=
EXTT2=
EXTT3=
PLAYORDER=
